<svg id="레이어_2" data-name="레이어 2" xmlns="http://www.w3.org/2000/svg" viewBox="0 0 875.2 366.07"><defs><style>.cls-1,.cls-5{fill:#ffcf17;}.cls-2{fill:#040000;}.cls-3{fill:#c9c9c9;}.cls-3,.cls-4,.cls-9{stroke:#231815;}.cls-3,.cls-4,.cls-5,.cls-9{stroke-miterlimit:10;}.cls-3,.cls-9{stroke-width:4px;}.cls-4{fill:#b7b7b7;stroke-width:3px;}.cls-5{stroke:#000;stroke-width:5px;}.cls-6{fill:#fff;}.cls-7{fill:#060001;}.cls-8{fill:#231815;}.cls-9{fill:none;}</style></defs><path class="cls-1" d="M103.7,742.27c0-65.09,38.47-136.84,137.6-154.59s133.89-10.34,133.89-10.34S410.7,510,433.63,496s193.82-35.49,286.28,0S915.69,659.2,932.19,714.23c4.44,14.8,0,39.21,0,39.21l-218.22,0-.74,12-419.43,0-2.12-23.64Z" transform="translate(-79.71 -474.1)"/><path class="cls-2" d="M106.2,742.27c.13-50.37,24-98.27,66.57-125.95,28.43-18.47,60.72-25.23,93.74-30.33,26.75-4.13,53.84-7.36,80.94-7.66a210,210,0,0,1,21,.65,41.89,41.89,0,0,1,6.08.77,2.58,2.58,0,0,0,2.83-1.15c7.58-14.35,15.91-28.36,24.81-41.92,6.54-10,13.42-19.86,21.51-28.65,4.71-5.11,9.73-9.81,16.32-12.25,15.54-5.75,32.64-8.06,49-10.33a694.23,694.23,0,0,1,78.23-6.14c28.89-.71,57.91.19,86.59,3.8,26,3.28,52.17,8.82,76.09,19.77,26.33,12.06,50.29,29.11,72.34,47.74a554.41,554.41,0,0,1,64.43,64.69c17.17,20.21,33.24,41.58,46.68,64.47a198.19,198.19,0,0,1,13.58,26.9c4.57,11.5,5.34,23,4.26,35.28-.32,3.62-.73,7.24-1.37,10.81l2.41-1.83H714a2.55,2.55,0,0,0-2.5,2.5l-.74,12,2.5-2.5H300.08c-1.68,0-3.94-.4-5.58,0a3.28,3.28,0,0,1-.7,0l2.5,2.5-2.12-23.64a2.56,2.56,0,0,0-2.5-2.5l-63.48.18L127,739.71l-23.28.06c-3.22,0-3.23,5,0,5l63.48-.18,101.22-.28,23.28-.07-2.5-2.5,2.12,23.64a2.57,2.57,0,0,0,2.5,2.5H696.1c5.44,0,11,.36,16.43,0h.7a2.55,2.55,0,0,0,2.5-2.5l.74-12-2.5,2.5H932.19a2.53,2.53,0,0,0,2.41-1.84c2-10.92,2.88-22.5,1.43-33.52-1.25-9.44-5.38-18.47-9.54-27-11-22.36-25.46-43-40.7-62.64a575.91,575.91,0,0,0-62.2-68c-22-20.46-45.79-39.45-71.91-54.41-49-28.07-106.5-34-162-34.41a719.61,719.61,0,0,0-84.06,4.28c-19.87,2.18-40,4.8-59.36,10.17-5.07,1.41-10.43,2.95-14.86,5.89-8.77,5.82-15.58,14.65-21.84,23-13,17.27-24.16,36-34.51,55-.67,1.23-1.34,2.46-2,3.7l2.82-1.15c-7.47-1.58-15.48-1.56-23.07-1.62-25.55-.18-51.13,2.63-76.4,6.2-34.37,4.87-68.74,10.59-99.19,28.23a150.53,150.53,0,0,0-55.9,56.09c-13.43,23.85-20,51.14-20.09,78.44C101.19,745.49,106.19,745.5,106.2,742.27Z" transform="translate(-79.71 -474.1)"/><path class="cls-3" d="M124.23,682.22c-6.88-4.92-4.08-15.6,5.21-26.41s23.63-13.27,28.2-7.15" transform="translate(-79.71 -474.1)"/><rect class="cls-4" x="1.5" y="215.85" width="44.88" height="15.78" rx="6.18"/><rect class="cls-4" x="815.7" y="216.38" width="55.97" height="19.67" rx="7.71"/><path d="M103.7,745.23c-2-50.79,50.31-114.4,116.39-114.4s144,32.07,143.49,136.62l-142,0V745.74Z" transform="translate(-79.71 -474.1)"/><path class="cls-5" d="M363.58,767.45c.51-104.55-77.41-136.61-143.49-136.62S101.73,694.44,103.7,745.23c0,0,26.09,3.94,32.55-22.68,7.89-32.55,49.32-59.19,86.8-59.18s63.12,22.21,75.44,41,11.34,48.82,11.34,48.82,1,16.27,15.29,16.28S363.58,767.45,363.58,767.45Z" transform="translate(-79.71 -474.1)"/><path d="M673.28,769c0-60.16,17.76-98.63,60.67-124.27S844.42,625,873.51,658.5s42.9,65.1,48.32,73.49,12.33,25.42,12.33,25.42H786.22V769Z" transform="translate(-79.71 -474.1)"/><path class="cls-5" d="M673.28,769c0-60.16,17.76-98.63,60.67-124.27S844.42,625,873.51,658.5s42.9,65.1,48.32,73.49c0,0,16.77,22.24,25.15,25.42-12.82,3.67-29.52,7.94-50.79-6.69-23.67-16.27-45.86-57.7-68.76-70.19C802,666.67,752.69,668.85,726.06,695s-24.17,74-24.17,74Z" transform="translate(-79.71 -474.1)"/><circle class="cls-6" cx="141.66" cy="286.26" r="77.3"/><path class="cls-7" d="M296.17,760.36A74.8,74.8,0,0,1,163.52,807.8a74.52,74.52,0,0,1-16.73-41.51,74.82,74.82,0,1,1,149.38-5.93c0,3.22,5,3.22,5,0a79.93,79.93,0,1,0-1,12.42,83.3,83.3,0,0,0,1-12.42C301.17,757.14,296.17,757.14,296.17,760.36Z" transform="translate(-79.71 -474.1)"/><circle class="cls-6" cx="141.66" cy="288.26" r="51.75"/><path class="cls-7" d="M270.62,762.36a49.78,49.78,0,0,1-9.23,28.71,49.12,49.12,0,0,1-22.95,17.5,49.47,49.47,0,1,1,32.18-46.21c0,3.21,5,3.22,5,0a54.33,54.33,0,0,0-10.1-31.51,54.25,54.25,0,0,0-98.24,27.31A54.18,54.18,0,0,0,199,811.76a54.94,54.94,0,0,0,33.36,3.73c21.72-4.39,39.21-22.6,42.59-44.51a57.92,57.92,0,0,0,.7-8.62C275.63,759.14,270.63,759.13,270.62,762.36Z" transform="translate(-79.71 -474.1)"/><circle class="cls-6" cx="710.9" cy="286.3" r="77.3"/><path class="cls-7" d="M865.41,760.41a74.8,74.8,0,0,1-132.65,47.43A74.46,74.46,0,0,1,716,766.33a74.82,74.82,0,1,1,149.38-5.92c0,3.21,5,3.22,5,0a79.81,79.81,0,1,0-112.76,72.68,80.79,80.79,0,0,0,49.07,5.48,79.81,79.81,0,0,0,62.71-65.74,83.3,83.3,0,0,0,1-12.42C870.42,757.19,865.42,757.18,865.41,760.41Z" transform="translate(-79.71 -474.1)"/><circle class="cls-6" cx="710.9" cy="288.3" r="51.75"/><path class="cls-7" d="M839.86,762.4a49.79,49.79,0,0,1-9.23,28.72,49.18,49.18,0,0,1-23,17.5,49.3,49.3,0,0,1-55.1-14.9c-13.2-15.86-14.79-39.13-4.16-56.75a49.21,49.21,0,0,1,91.44,25.43c0,3.22,5,3.23,5,0a54.36,54.36,0,0,0-10.09-31.5,54.25,54.25,0,0,0-98.25,27.3,54.21,54.21,0,0,0,31.69,53.61,55.09,55.09,0,0,0,33.36,3.73c21.72-4.39,39.21-22.6,42.59-44.52a57.82,57.82,0,0,0,.7-8.62C844.87,759.19,839.87,759.18,839.86,762.4Z" transform="translate(-79.71 -474.1)"/><path class="cls-8" d="M499.54,598.14h71s12.49-1.32,12.49-10.85V521.88c0-4.94-2.3-10.85-12.82-10.86s-57.09-2.37-70.69,0c-25.48,4.44-46.28,17.42-59.18,27-14.21,10.51-27.29,36.17-27,47.34s5.59,12.83,14.13,12.83Z" transform="translate(-79.71 -474.1)"/><path class="cls-8" d="M499.54,600.64h70.1a18.78,18.78,0,0,0,12.23-4.79c2.89-2.7,3.68-6.18,3.68-10V529.72c0-4.85.78-10.69-1.8-15-4.31-7.2-13.65-6.12-20.89-6.32-8.62-.25-17.25-.54-25.88-.73-9-.19-18.1-.34-27.14,0a93.48,93.48,0,0,0-10,.81,103.94,103.94,0,0,0-18.3,4.62,148.43,148.43,0,0,0-32.16,15.67,137.94,137.94,0,0,0-12,8.39,63.45,63.45,0,0,0-10.84,11.66c-6.22,8.31-11.52,17.93-14.33,28-2.15,7.65-2.46,19,6.29,22.58,3.17,1.29,6.72,1.3,10.1,1.3h70.93c3.22,0,3.23-5,0-5H429.33a30.8,30.8,0,0,1-8-.6c-.36-.1-.72-.22-1.08-.35-.68-.26.42.22-.22-.1l-.57-.3c-.16-.1-.95-.65-.55-.34a9.89,9.89,0,0,1-.94-.89c-.47-.53.26.39-.16-.2-.13-.19-.25-.38-.37-.58a9.35,9.35,0,0,1-.56-1.09c.18.42-.13-.4-.12-.39-.09-.26-.17-.53-.24-.8a15.83,15.83,0,0,1-.38-1.79c-.64-4.11,0-7,1.14-10.93a73,73,0,0,1,5.48-13.07c4.63-8.81,10.69-17.87,18.63-23.9a158.9,158.9,0,0,1,26.17-16.09,129.56,129.56,0,0,1,16.89-6.86q4.77-1.54,9.64-2.68c1.52-.36,3-.68,4.58-1l1.84-.33c.18,0,1.24-.18.45-.07,7.37-.95,14.91-.86,22.33-.84,15.64,0,31.26.93,46.89,1a14.86,14.86,0,0,1,6.72,1.34,8.32,8.32,0,0,1,1.09.69c-.36-.27.24.22.25.23l.51.5s.51.62.19.2c.09.12.18.24.26.37a9.82,9.82,0,0,1,.74,1.35c-.21-.49.15.47.2.62.1.34.18.68.25,1s.08.42.11.63c-.09-.63,0,.06,0,.16,0,.41,0,.82,0,1.24v64a11.59,11.59,0,0,1-.3,3.51,5.84,5.84,0,0,1-1.06,2c.29-.4-.18.2-.2.22-.16.18-.32.35-.49.51s-.22.22-.34.32-.79.62-.39.33a14,14,0,0,1-2.13,1.28c-.15.08-1.1.49-.58.28-.41.17-.82.32-1.24.46a24.34,24.34,0,0,1-3.29.82c-.85.15.38,0,0,0h-.18c-.51,0-1,0-1.52,0H499.54C496.33,595.64,496.32,600.64,499.54,600.64Z" transform="translate(-79.71 -474.1)"/><path class="cls-6" d="M492.2,598.14h65s11.43-1,11.43-8.68V537.13c0-4-2.1-8.68-11.73-8.68H492.2c-12.63,0-43,11.31-54.13,21.57s-25,28.93-24.66,37.87,5.11,10.26,12.93,10.26Z" transform="translate(-79.71 -474.1)"/><path class="cls-8" d="M492.2,600.64h63.71a19.06,19.06,0,0,0,10.73-3.2,10.48,10.48,0,0,0,3.81-4.62,11.37,11.37,0,0,0,.64-4.33V539.82a23.48,23.48,0,0,0-.36-5.68,10.61,10.61,0,0,0-7.68-7.41c-3.26-1-6.72-.78-10.09-.78H495.9a62.1,62.1,0,0,0-8.52.4A83,83,0,0,0,475.61,529a141,141,0,0,0-26.49,10.68,70.94,70.94,0,0,0-10.76,6.84,74.72,74.72,0,0,0-9.42,9.32c-6.51,7.38-12.9,15.65-16.51,24.88a18.7,18.7,0,0,0-1,11.44,10.41,10.41,0,0,0,7.71,7.81c4.71,1.22,10.09.7,14.94.7H492.2c3.22,0,3.22-5,0-5H428.75a49.49,49.49,0,0,1-6.89-.23c.44.06-.4-.08-.39-.08l-.5-.1a12.29,12.29,0,0,1-1.19-.32l-.45-.15c-.69-.27.4.22-.24-.12a8.58,8.58,0,0,1-1-.63c-.33-.24.39.39-.09-.09l-.31-.3c-.05,0-.51-.6-.19-.18a4.28,4.28,0,0,1-.26-.38,9.24,9.24,0,0,1-.58-1.07c.15.36-.05-.17-.07-.25-.1-.31-.2-.62-.27-.94a12.94,12.94,0,0,1-.35-2.55,11.22,11.22,0,0,1,0-1.16c0-.21,0-.42.05-.62-.05.46,0,0,0-.21a23.29,23.29,0,0,1,1.52-4.89,67.36,67.36,0,0,1,6.61-11.43,116.8,116.8,0,0,1,9.34-11.7c1.58-1.75,3.22-3.46,4.92-5.1.71-.68,1.42-1.36,2.16-2s1.21-1,1.68-1.36c6.87-5.12,14.9-8.83,22.85-11.93,4.29-1.67,8.65-3.17,13.09-4.41,1.93-.54,3.88-1,5.85-1.45.89-.19,1.78-.36,2.68-.52l1.14-.18.62-.09.3,0a73.43,73.43,0,0,1,7.85-.22h56c2.81,0,5.78-.24,8.52.43a7,7,0,0,1,3.84,2.09c.46.51-.25-.4.12.16.08.11.16.23.23.35s.51,1,.28.47a7.21,7.21,0,0,1,.3.93c.06.22.22,1.32.15.64.15,1.55.06,3.14.06,4.69V588.5c0,.41,0,.83,0,1.24a3.86,3.86,0,0,1-.46,1.69,4.63,4.63,0,0,1-1.12,1.37c-.45.43,0,.11-.58.46a10.85,10.85,0,0,1-1.18.71c-.3.16-.61.31-.92.45s.54-.2-.13.05l-.41.15c-.7.25-1.41.46-2.13.64-.49.12-1,.22-1.48.31l-.58.09c-.48.09.71,0,.19,0-3-.15-6,0-9,0H492.2C489,595.64,489,600.64,492.2,600.64Z" transform="translate(-79.71 -474.1)"/><path class="cls-8" d="M697.8,527.14c21.37,9.21,57.53,32.89,58.84,47.35s-7.27,22-17.77,22H623.16c-6.57,0-21-1-21-14.14V524.84c0-3.62,0-13.81,13.15-13.81S673.3,516,697.8,527.14Z" transform="translate(-79.71 -474.1)"/><path class="cls-8" d="M696.53,529.3a178.38,178.38,0,0,1,23.08,12.29,158,158,0,0,1,22.29,16.28,67.61,67.61,0,0,1,8.09,8.4c.31.39.14.17.07.09.15.19.3.39.44.59s.47.65.7,1c.42.62.83,1.26,1.2,1.92s.66,1.23,1,1.87-.18-.49,0,.13c.05.12.1.24.14.36.13.35.24.7.34,1.06s.15.58.21.87c0,.11,0,.23.06.34.12.59,0-.58,0,0a37.89,37.89,0,0,1,.12,3.84,20.73,20.73,0,0,1-1.26,6.52,13.9,13.9,0,0,1-6.77,7.54,17.53,17.53,0,0,1-8,1.63H623.5c-.86,0-1.71,0-2.57,0-.71,0-1.42-.08-2.13-.14-1-.08-1.43-.14-2-.23a27.7,27.7,0,0,1-4.85-1.19c-.17-.07-1.09-.44-.77-.3-.37-.16-.74-.34-1.1-.53s-.71-.39-1.05-.61c-.17-.1-1-.66-.68-.44-2.79-2.15-3.75-4.9-3.76-8.49q0-10.15,0-20.33c0-12.4,0-24.81,0-37.22a27.23,27.23,0,0,1,.16-3c-.09.76,0-.21.07-.4s.12-.61.19-.91.17-.62.27-.93l.16-.46c.19-.61-.13.22.08-.24a13.44,13.44,0,0,1,1-1.69c.08-.11.38-.46.06-.09l.36-.41a9,9,0,0,1,.9-.85c-.31.26.5-.34.65-.43a8.76,8.76,0,0,1,1.13-.6c-.32.14.21-.08.28-.11l.68-.23a13.31,13.31,0,0,1,1.79-.42,38.82,38.82,0,0,1,8.62,0c3.38.19,6.75.49,10.12.83,18.15,1.85,36.55,4.89,54,10.45a105.15,105.15,0,0,1,11.4,4.29,2.58,2.58,0,0,0,3.43-.89,2.53,2.53,0,0,0-.9-3.42,145.28,145.28,0,0,0-26.77-8.68c-9.59-2.25-19.31-4-29.06-5.29-7.72-1.06-15.49-1.95-23.27-2.35-3.37-.17-6.84-.36-10.13.5a12.86,12.86,0,0,0-8.5,6.69c-1.9,4-1.7,8.32-1.7,12.61v45.28c0,3-.06,6,0,9a14.73,14.73,0,0,0,4.85,11c7.32,6.27,17.94,5.26,27,5.26h81.3c8.71,0,17.42.05,26.12,0a20.93,20.93,0,0,0,11.85-3.5,19.62,19.62,0,0,0,7.45-10.37,24.45,24.45,0,0,0,.48-13.38,26.25,26.25,0,0,0-4.81-8.64c-5.32-6.84-12.27-12.38-19.22-17.46a202.7,202.7,0,0,0-24.54-15.34c-3.61-1.92-7.27-3.72-11-5.34a2.58,2.58,0,0,0-3.42.89A2.52,2.52,0,0,0,696.53,529.3Z" transform="translate(-79.71 -474.1)"/><path class="cls-6" d="M681.85,543.42c-20.41-8.56-57.81-12.34-68.77-12.34s-11,7.8-11,10.57v44c0,10.06,12,10.82,17.53,10.82H738.87s6.59-6.25-6.56-19.4S702.07,552.46,681.85,543.42Z" transform="translate(-79.71 -474.1)"/><path class="cls-8" d="M682.51,541a132.59,132.59,0,0,0-24.81-7.07c-8.8-1.78-17.69-3.09-26.61-4.08a143.43,143.43,0,0,0-18.41-1.27c-4.13.07-8.29,1.28-10.84,4.73a13,13,0,0,0-2.21,7.38c-.13,4.38,0,8.79,0,13.17V576.6c0,2.92,0,5.84,0,8.76a11.89,11.89,0,0,0,4.82,10c4.29,3.18,10.17,3.68,15.34,3.69H734.64c1.4,0,2.82.08,4.22,0,1.56-.09,2.51-1.38,3.12-2.69a11.52,11.52,0,0,0,.74-7.32c-.82-4.13-3.43-7.82-6.11-10.94a98,98,0,0,0-11.34-10.79,170.42,170.42,0,0,0-26.92-18.42q-7.46-4.12-15.24-7.6a2.57,2.57,0,0,0-3.42.9,2.52,2.52,0,0,0,.9,3.42A180.49,180.49,0,0,1,717.05,567a128.91,128.91,0,0,1,14.18,12.55,30.75,30.75,0,0,1,5.5,7.37,10.71,10.71,0,0,1,.91,2.3c.12.43.21.85.3,1.28,0,.12.09.79,0,.12,0,.25,0,.49.06.74s0,.78,0,1.17.15-.56,0-.07c0,.18-.07.37-.12.55s-.14.49-.21.73c-.21.74.27-.4-.09.21-.19.32-1,1.29-.22.47-.09.09-.16.2-.26.29l1.77-.73h-119c-.9,0-1.81,0-2.71-.06-.57,0-1.13-.07-1.7-.12l-1-.1c-.07,0-.49-.07-.06,0l-.61-.1a22.23,22.23,0,0,1-3.78-.94,7.93,7.93,0,0,1-1.47-.63c-.29-.16-.58-.32-.85-.49-.11-.07-.8-.55-.49-.31a5.78,5.78,0,0,1-2.17-2.72c.14.33-.18-.55-.2-.63a7.51,7.51,0,0,1-.21-.94,16.23,16.23,0,0,1-.08-1.77V542.42c0-.45,0-.89,0-1.34s0-.68,0-1c0-.18,0-.36.05-.54,0-.71-.11.4,0-.32.09-.4.17-.81.29-1.2s.15-.47.24-.71c.15-.42,0,0,0,.08.07-.15.13-.3.21-.44s.27-.45.41-.68c.27-.47-.12.08.16-.23a5.84,5.84,0,0,1,1.08-1c2.08-1.28,4.67-1.49,7.37-1.43,5.14.12,10.28.59,15.39,1.13,14.22,1.51,28.57,3.77,42.28,7.91a92.07,92.07,0,0,1,9,3.19,2.52,2.52,0,0,0,3.08-1.75A2.55,2.55,0,0,0,682.51,541Z" transform="translate(-79.71 -474.1)"/><line class="cls-9" x1="295.48" y1="163.84" x2="667.72" y2="163.87"/><rect class="cls-4" x="456.49" y="176.45" width="44.88" height="9.7" rx="4.85"/><line class="cls-9" x1="514.35" y1="2.52" x2="514.33" y2="293.53"/><line class="cls-9" x1="295.48" y1="103.24" x2="295.47" y2="291.29"/><path class="cls-9" d="M375.19,603.23c-38.47,0-131.89-3-186.33,32.41" transform="translate(-79.71 -474.1)"/></svg>