<svg xmlns="http://www.w3.org/2000/svg" viewBox="0 0 875.2 694.78"><defs><style>.cls-1{fill:#fff000;}.cls-1,.cls-10,.cls-5,.cls-6{stroke:#231815;}.cls-1,.cls-10,.cls-5,.cls-6,.cls-7{stroke-miterlimit:10;}.cls-1,.cls-10,.cls-5{stroke-width:4px;}.cls-2{fill:#231815;}.cls-3,.cls-7{fill:#ffcf17;}.cls-4{fill:#040000;}.cls-5{fill:#c9c9c9;}.cls-6{fill:#b7b7b7;stroke-width:3px;}.cls-7{stroke:#000;stroke-width:5px;}.cls-8{fill:#fff;}.cls-9{fill:#060001;}.cls-10{fill:none;}</style></defs><g id="레이어_1" data-name="레이어 1"><rect class="cls-1" x="82.21" y="217.53" width="703.23" height="21.7"/><polygon class="cls-1" points="494.97 217.53 485.76 239.23 532.81 239.23 542.02 217.53 494.97 217.53"/><polygon class="cls-1" points="423.4 217.53 414.19 239.23 458.08 239.23 467.29 217.53 423.4 217.53"/><polygon class="cls-1" points="351.12 217.53 341.91 239.23 386.5 239.23 395.72 217.53 351.12 217.53"/><polygon class="cls-1" points="204.82 217.53 195.61 239.23 242.65 239.23 251.86 217.53 204.82 217.53"/><polygon class="cls-1" points="82.21 217.53 82.21 239.23 96.35 239.23 105.56 217.53 82.21 217.53"/><polygon class="cls-1" points="279.55 217.53 270.33 239.23 314.23 239.23 323.44 217.53 279.55 217.53"/><polygon class="cls-1" points="569.7 217.53 560.49 239.23 604.38 239.23 613.59 217.53 569.7 217.53"/><polygon class="cls-1" points="133.24 217.53 124.03 239.23 167.92 239.23 177.13 217.53 133.24 217.53"/><polygon class="cls-1" points="711.77 217.53 702.56 239.23 746.45 239.23 755.66 217.53 711.77 217.53"/><polygon class="cls-1" points="774.13 239.23 785.44 239.23 785.44 217.53 783.34 217.53 774.13 239.23"/><polygon class="cls-1" points="641.27 217.53 632.06 239.23 674.88 239.23 684.09 217.53 641.27 217.53"/><polygon class="cls-2" points="105.56 217.53 96.35 239.23 124.03 239.23 133.24 217.53 105.56 217.53"/><polygon class="cls-2" points="177.13 217.53 167.92 239.23 195.61 239.23 204.82 217.53 177.13 217.53"/><polygon class="cls-2" points="251.86 217.53 242.65 239.23 270.33 239.23 279.55 217.53 251.86 217.53"/><polygon class="cls-2" points="323.44 217.53 314.23 239.23 341.91 239.23 351.12 217.53 323.44 217.53"/><polygon class="cls-2" points="395.72 217.53 386.5 239.23 414.19 239.23 423.4 217.53 395.72 217.53"/><polygon class="cls-2" points="467.29 217.53 458.08 239.23 485.76 239.23 494.97 217.53 467.29 217.53"/><polygon class="cls-2" points="542.02 217.53 532.81 239.23 560.49 239.23 569.7 217.53 542.02 217.53"/><polygon class="cls-2" points="613.59 217.53 604.38 239.23 632.06 239.23 641.27 217.53 613.59 217.53"/><polygon class="cls-2" points="684.09 217.53 674.88 239.23 702.56 239.23 711.77 217.53 684.09 217.53"/><polygon class="cls-2" points="755.66 217.53 746.45 239.23 774.13 239.23 783.34 217.53 755.66 217.53"/><path d="M188.11,256.74q-1.16,1.74-3.2,4.86t-3.6,5.24q-2.52,3.5-5.63,3.5a6,6,0,0,1-2.34-.49,2,2,0,0,1-1.36-1.26c-.51-1.94-.13-4.34,1.17-7.19a37.19,37.19,0,0,1,2.92-5q1.94-2.93,3.3-5.05c1.16-1.82,2.56-3.89,4.18-6.22s2.94-4.41,4-6.22q1.93-3.3,3.89-6.12c1.29-1.88,2.52-3.72,3.69-5.54a46.88,46.88,0,0,0,3.11-5.64,31.52,31.52,0,0,0,2.14-6.41,33.16,33.16,0,0,0-3.89.29,34.09,34.09,0,0,0-4.76,1q-2.43.69-4.86,1.56a29.36,29.36,0,0,0-4.18,1.84,39.11,39.11,0,0,0-5.44,3.41,11.27,11.27,0,0,1-5.83,2,2.79,2.79,0,0,1-3.2-1.45,6.41,6.41,0,0,1-.68-4.37,9.48,9.48,0,0,1,1.45-3.11,11.42,11.42,0,0,1,3.79-3.11,48.58,48.58,0,0,1,6.12-2.92,69.09,69.09,0,0,1,6.9-2.33c2.33-.65,4.54-1.2,6.61-1.65a43.26,43.26,0,0,1,5.44-.88q6.79-.37,10.11,2.53c2.2,1.94,3,4.8,2.33,8.55-.26,1.43-.42,2.56-.49,3.4a10.79,10.79,0,0,1-.48,2.43,21.81,21.81,0,0,1-1.07,2.53c-.46.9-1.14,2.07-2,3.49-.39.66-1,1.72-1.85,3.21s-1.78,3.14-2.82,5L198.41,242c-1,1.81-1.94,3.3-2.72,4.47a33.82,33.82,0,0,0,5.64,13.21,97.17,97.17,0,0,0,8.55,10.3,25.74,25.74,0,0,1,3.11,3.6,5.51,5.51,0,0,1,.78,3.59,3,3,0,0,1-1.27,1.95,3.78,3.78,0,0,1-3,.38,18,18,0,0,1-6.22-3.3,41.16,41.16,0,0,1-6.22-5.93,76.08,76.08,0,0,1-5.34-7A35.85,35.85,0,0,1,188.11,256.74Zm6.42-64.33a23.48,23.48,0,0,1-.2-8c.39-2.59.71-4.41,1-5.44a94.23,94.23,0,0,1,3.31-11.66q1.94-5.44,3.5-9.33c.51-1.43,1-2.88,1.45-4.37a20.15,20.15,0,0,1,1.75-4.09,9.39,9.39,0,0,1,2.72-3,7.81,7.81,0,0,1,4.57-1.16q5.06,0,5.05,4.85a13.43,13.43,0,0,1-1,4.86c-.65,1.69-1.39,3.4-2.23,5.15s-1.75,3.5-2.72,5.25a46.64,46.64,0,0,0-2.43,4.95q-2.15,5.64-4.28,11.37t-3.69,11.37a3.14,3.14,0,0,1-1.36,1.75,3,3,0,0,1-2.14.39,5.1,5.1,0,0,1-2.14-.88A2.79,2.79,0,0,1,194.53,192.41ZM239.81,261a14.56,14.56,0,0,1-.3-2.43c-.06-1.1-.13-2.23-.19-3.4s-.13-2.26-.19-3.3-.1-1.75-.1-2.14a11,11,0,0,0-.58-2.14,4.38,4.38,0,0,1-.2-2.33q1.75-15.35,4.18-30.22t5.73-30.41a18.45,18.45,0,0,1,1.17-3.5c.51-1.16,1.62-1.75,3.3-1.75q6,0,6,6a17.24,17.24,0,0,1-1.17,6.31,37.8,37.8,0,0,0-1.75,5.74q-2.15,9.14-3.59,18.65t-2,19.24a50.49,50.49,0,0,1,6-2.43q3.69-1.26,7.77-2.33t8.26-1.85a62.82,62.82,0,0,1,7.48-1H283a4.33,4.33,0,0,1,1.36.2c1.42.38,1.94,1.42,1.55,3.1s-2.65,3.18-6.8,4.47c-1.68.52-3.63,1.14-5.83,1.85s-4.41,1.49-6.61,2.33-4.27,1.65-6.22,2.43a42.65,42.65,0,0,0-4.66,2.14A11.47,11.47,0,0,0,249.52,255a37,37,0,0,0,.88,8.06,36.84,36.84,0,0,1,.87,7.87,2.5,2.5,0,0,1-1.46,2.34,5.53,5.53,0,0,1-2.43.77,4.47,4.47,0,0,1-3.59-1.46,11,11,0,0,1-2-3.59,25.94,25.94,0,0,1-1.17-4.28C240.32,263.28,240.06,262.05,239.81,261Z" transform="translate(-79.71 -145.39)"/><path d="M290.52,181.53a5,5,0,0,1,2.34-3.4,30.8,30.8,0,0,1,4.66-2.43A63.65,63.65,0,0,1,322.2,171a16.66,16.66,0,0,1,5.93,1.07c1.87.71,2.75,1.84,2.62,3.4q-.19,3.88-4.27,4.47-3.32.39-6.13.77a67,67,0,0,0-6.7,1.36c-1,.27-2.3.65-3.79,1.17s-2.88,1-4.18,1.56a23.77,23.77,0,0,0-5.44,2.81,6.48,6.48,0,0,1-4.86,1.27q-3.88-.39-4.56-2.72A10.29,10.29,0,0,1,290.52,181.53Zm3.89,40a51.42,51.42,0,0,1,1.17-11.85q1.16-4.86,3.11-11.47c.25-.77.51-1.58.77-2.43a15.51,15.51,0,0,1,1-2.42,7.75,7.75,0,0,1,1.45-2,3.05,3.05,0,0,1,2.24-.87,6.33,6.33,0,0,1,4.47,1.46,4.76,4.76,0,0,1,2.14,3.79,11.11,11.11,0,0,1-.88,4.86,25.55,25.55,0,0,0-1.65,4.47c-.65,2.59-1.2,5.14-1.65,7.67a59.58,59.58,0,0,0-.88,7.68,14.08,14.08,0,0,0,.2,2c.12.84.77,1.2,1.94,1.07a27.86,27.86,0,0,0,8.06-2,79.87,79.87,0,0,0,7.87-3.79q3.51-2,6.9-4.08t6.9-4.08a3.9,3.9,0,0,1,3.11-.59,3,3,0,0,1,2.14,2.33,3.54,3.54,0,0,1-.2,2.53,8.94,8.94,0,0,1-1.36,2.53,32.17,32.17,0,0,1-6.31,5.83q-3.6,2.52-8.65,5.83a65.25,65.25,0,0,1-10.1,5.44,28.76,28.76,0,0,1-11.27,2.13q-6.23,0-8.36-4.17A21.25,21.25,0,0,1,294.41,221.56ZM352.9,322.61a7.86,7.86,0,0,1,2-4.08,34.63,34.63,0,0,1,4.08-4.17q2.32-2,4.86-3.89c1.68-1.23,3.11-2.24,4.27-3s2.92-2.11,4.86-3.6,3.82-3,5.64-4.47,3.46-2.82,4.95-4,2.43-1.94,2.82-2.33a27.45,27.45,0,0,1,2-1.85,4.4,4.4,0,0,0,1.46-2.23c-.78,0-2,0-3.79.09l-5.74.2q-3.1.09-6.21.09c-2.08,0-3.89-.06-5.45-.19a11.94,11.94,0,0,1-7.09-2.72q-2.62-2.33-2.23-7.19a17.65,17.65,0,0,1,3.5-8.55q2.91-3.89,6.21-7.77a80.21,80.21,0,0,1,8.94-8.75,87.47,87.47,0,0,0,7.78-7.19,10.87,10.87,0,0,0,2.33-3.89,74.22,74.22,0,0,0-19.05,3q-8.55,2.63-17.68,9.81a4.57,4.57,0,0,1-2.72,1.07,5.62,5.62,0,0,1-2.92-.58,6.78,6.78,0,0,1-2.33-1.95,5.08,5.08,0,0,1-1-3.2c0-1.82,1-3.5,3.11-5.06a55.43,55.43,0,0,1,5.83-3.88,65.59,65.59,0,0,1,34.2-9.14,39.41,39.41,0,0,1,4.28.29,23.11,23.11,0,0,1,4.76,1.07,10.59,10.59,0,0,1,3.79,2.24,5.21,5.21,0,0,1,1.55,4,12.78,12.78,0,0,1-2.52,6.9,62.21,62.21,0,0,1-6.13,7.68q-3.58,3.89-7.48,7.67t-6.6,6.9a30.36,30.36,0,0,0-2.92,3.89,20.27,20.27,0,0,0-1.94,3.69,2.45,2.45,0,0,0,0,2.33c.39.65,1.29,1,2.72,1,4.14,0,8-.06,11.46-.19s6.93-.13,10.3,0c2.59.13,4.38.91,5.35,2.33a6,6,0,0,1,.87,4.86,10.67,10.67,0,0,1-2,3.69,47.74,47.74,0,0,1-4.08,4.57q-2.43,2.43-5.25,4.86c-1.88,1.62-3.66,3.07-5.34,4.37q-4.08,3.1-9.72,7a74.9,74.9,0,0,0-10.49,8.75c.9,0,2.17-.07,3.79-.19a26.24,26.24,0,0,0,4-.59q6.81-1,13.41-2.23c4.4-.85,8.81-1.78,13.22-2.82a4.76,4.76,0,0,1,2.91.1,3,3,0,0,1,1.65,1.45,4.3,4.3,0,0,1,.39,2.24,3.48,3.48,0,0,1-1.07,2.23q-1.56,1.75-7.09,3.5a121.72,121.72,0,0,1-12.15,3.11q-6.6,1.36-12.82,2.33a65.79,65.79,0,0,1-8.94,1,14.47,14.47,0,0,1-7.58-1.65Q352.33,327.66,352.9,322.61Zm-1.16-138.16q0-4.47.68-11.66t2-16.52c.13-1,1-1.68,2.53-2a8.89,8.89,0,0,1,4.47.39,6.22,6.22,0,0,1,3.3,2.34,4.67,4.67,0,0,1,.39,3.3q-.78,4.47-1.27,8.06t-.77,6.9q-.3,3.31-.49,6.61c-.13,2.2-.26,4.54-.39,7,0,.38,0,1.26.1,2.62s.19,2.85.39,4.47.39,3.17.58,4.66a11.14,11.14,0,0,0,.88,3.4,78.31,78.31,0,0,1,9.91-8.35,71.2,71.2,0,0,1,11.27-6.61,10,10,0,0,1,2.72-.87,15.83,15.83,0,0,1,3-.3,5.47,5.47,0,0,1,2.43.49,2,2,0,0,1,1.17,1.46c.25,1.42.06,2.43-.59,3a29.23,29.23,0,0,1-2.33,1.85,72.37,72.37,0,0,1-7.09,4.76,56.13,56.13,0,0,0-7.1,5q-3.3,2.92-5.34,4.86a37,37,0,0,0-3.21,3.4,8.63,8.63,0,0,0-1.55,2.72,7.44,7.44,0,0,0-.2,3c0,.27.07.91.2,2s.19,1.62.19,1.75a3.2,3.2,0,0,1-1.36,2.62,4.89,4.89,0,0,1-3.11,1.07,7,7,0,0,1-4.47-1.26,8.56,8.56,0,0,1-2.42-3.31A18.73,18.73,0,0,1,355,216.9c-.26-1.56-.52-3-.78-4.47q-1-4.08-1.45-7.38t-.68-6.52q-.19-3.19-.29-6.6T351.74,184.45Zm44.31,20.6c.25-3,.58-5.74,1-8.26s.8-5,1.26-7.49,1-5,1.56-7.57,1.26-5.38,2-8.36c.64-2.2,1.16-4.15,1.55-5.83s.9-3.69,1.55-6,1.88-3.57,3.7-3.31a14.44,14.44,0,0,1,2.72.68,12.11,12.11,0,0,1,2.52,1.26,6.39,6.39,0,0,1,1.85,1.85,3.55,3.55,0,0,1,.49,2.43,25.4,25.4,0,0,1-2.63,9.33,44.65,44.65,0,0,0-3.4,9.13q-1.17,4.67-2.14,8.75t-1.74,8.16q-.78,4.08-1.37,8.55t-1.16,9.91q-.39,4.86-5.25,4.27a2.7,2.7,0,0,1-1.94-1.06,5.37,5.37,0,0,1-1.17-3.21,54.38,54.38,0,0,1,0-6.51C395.59,209.61,395.78,207.38,396.05,205.05Z" transform="translate(-79.71 -145.39)"/><path d="M433.55,210.88c.13-1.95,1.65-3.63,4.57-5.06a48.76,48.76,0,0,1,10-3.49,87,87,0,0,1,11-2,46.6,46.6,0,0,1,7.68-.39,39.84,39.84,0,0,1,9.43,1.36q2.81,1,2.42,4.47a3,3,0,0,1-3,2.63,43.15,43.15,0,0,1-4.56.29,73,73,0,0,0-11.18,1.65q-5.53,1.26-10.59,2.82a7.54,7.54,0,0,0-2.82,1.36c-.84.65-1.68,1.26-2.52,1.84a14.82,14.82,0,0,1-2.63,1.46,6.06,6.06,0,0,1-3.11.39,4.84,4.84,0,0,1-3.88-2.72A7.45,7.45,0,0,1,433.55,210.88Zm8.74,46.25a60.4,60.4,0,0,1-.48-7.49,81.15,81.15,0,0,1,.48-10.3,53.54,53.54,0,0,1,2.14-10.29,16,16,0,0,1,4.47-7.49,3.27,3.27,0,0,1,2.24-.48,7.24,7.24,0,0,1,2.81.77,6.17,6.17,0,0,1,2.34,2.14,5.08,5.08,0,0,1,.77,3.4,12.24,12.24,0,0,1-1.07,3.89c-.58,1.3-1.13,2.59-1.65,3.89a20,20,0,0,0-1.45,5.24,54.2,54.2,0,0,0-.49,8.16c0,1.3,0,2.66.1,4.09a12.11,12.11,0,0,0,.77,3.88,7.35,7.35,0,0,0,2,2.92,5.86,5.86,0,0,0,3.89,1.16,16.7,16.7,0,0,0,4.28-.68,42.13,42.13,0,0,0,4.47-1.45,20.83,20.83,0,0,0,2.72-1.07c1.29-.59,2.68-1.2,4.17-1.85s2.85-1.26,4.09-1.84l2.62-1.27c2.07-1,3.62-1.46,4.66-1.26a3.88,3.88,0,0,1,2.53,1.65,2.86,2.86,0,0,1,.1,3.11,15.86,15.86,0,0,1-3.79,3.89,32,32,0,0,1-5.74,3.69,64.66,64.66,0,0,1-7.09,3.11,62.77,62.77,0,0,1-7.38,2.23,29.31,29.31,0,0,1-6.61.88q-6.81,0-11-2.92T442.29,257.13Zm66.85-8q0-6.22.39-13c.26-4.54.39-8.87.39-13q-6.81,3.88-13.31,7.48t-13.31,7.48a34.65,34.65,0,0,1-3.6,1.94,8.3,8.3,0,0,1-3.4,1c-1.94,0-3.3-.46-4.08-1.36a6.5,6.5,0,0,1-1.16-4.28,6.73,6.73,0,0,1,.38-2.62,4.48,4.48,0,0,1,1.36-1.66,14.93,14.93,0,0,1,4.18-2,49.49,49.49,0,0,0,4.76-1.85q6.81-3.3,13.7-6.9T508.56,213a15.65,15.65,0,0,0,2.43-2.13c.71-.78,1.46-1.53,2.23-2.24a14.27,14.27,0,0,1,2.53-1.85,6.63,6.63,0,0,1,3.3-.77,11,11,0,0,1,5.64,1.26,4.3,4.3,0,0,1,2.14,4,10.76,10.76,0,0,1-1.65,6,12.57,12.57,0,0,0-2,5.24c-.39,1.69-.85,4-1.36,6.9a95.09,95.09,0,0,0-1.17,9.82c-.13,1.42-.2,3.27-.2,5.54v4.37c0,3.76.1,7.09.3,10s.48,5.92.87,9c.13,1,.29,2.14.49,3.31s.41,2.33.68,3.49.48,2.17.68,3a13.87,13.87,0,0,1,.29,1.45,2.54,2.54,0,0,1-1.36,2.34,6.67,6.67,0,0,1-3.31.77,4.4,4.4,0,0,1-3-1.36,12.86,12.86,0,0,1-2.52-3.3,28.41,28.41,0,0,1-1.85-4.08,18.31,18.31,0,0,1-1-3.5,13.48,13.48,0,0,1-.58-2.72c-.14-1-.3-2.33-.49-3.89s-.33-3.5-.39-5.83S509.14,252.66,509.14,249.16Zm30.71,17.68a17.08,17.08,0,0,1-.78-4.56v-4.57q0-7.57.78-15.55t1.94-15.64q1.17-7.68,2.33-14.87t1.75-13.41a3.41,3.41,0,0,1,1.85-2.52,6.59,6.59,0,0,1,3.4-1,13.89,13.89,0,0,1,5.44,1.06,3.83,3.83,0,0,1,2.53,3.79,11.32,11.32,0,0,1-.68,3.7,24.65,24.65,0,0,0-1.07,5q-.39,2-1.27,7.09c-.58,3.44-1.23,7.09-1.94,11s-1.39,7.58-2,11.08-1,6-1.17,7.38q-.57,5.64-1.36,11t-1.16,11a2.2,2.2,0,0,1-1.65,1.85,8.55,8.55,0,0,1-2.63.48,6.36,6.36,0,0,1-2.52-.58A2.91,2.91,0,0,1,539.85,266.84Z" transform="translate(-79.71 -145.39)"/><path d="M574.24,226.81A21.46,21.46,0,0,1,575,220a48.77,48.77,0,0,1,2.62-7.39q1.65-3.69,3.5-7.28t3.6-6.51c1.42-2.2,2.75-4.38,4-6.51s2.43-4,3.6-5.74a5.37,5.37,0,0,1,4.56-2.43,5.57,5.57,0,0,1,4.76,2,4.81,4.81,0,0,1,.88,2.52,7.36,7.36,0,0,1-1.07,4.47,21.53,21.53,0,0,0-1.75,3.5q1.93.78,4.76,4.08t2.43,9.72a31.89,31.89,0,0,1-1.55,7.19A28.33,28.33,0,0,1,599.7,227a21.55,21.55,0,0,1-7.58,6.22,25.55,25.55,0,0,1-8.36,2.14,10.61,10.61,0,0,1-5.83-1.65Q574.63,231.86,574.24,226.81Zm21.57,53.44c-1.16.91-2.46,1.94-3.88,3.11a37.25,37.25,0,0,0-4.08,3.89,9.56,9.56,0,0,0-1.85,2.52,24.33,24.33,0,0,1-1.46,2.53,13.33,13.33,0,0,1-1.65,2,4,4,0,0,1-2.43,1.07q-3.11.58-4.47-.88a5.3,5.3,0,0,1-1.36-3.78,10.11,10.11,0,0,1,.58-3.5,8.93,8.93,0,0,1,2.14-3.11q3.1-3.69,7.48-8.55t9.23-9.72q4.86-4.86,9.62-9.23t8.65-7.29q.78-.39,2-.87a6.45,6.45,0,0,1,2.24-.49,7,7,0,0,1,3.79,1.36,4.23,4.23,0,0,1,2,3.69q0,1.76-2.72,4.77t-5.93,6.12c-2.14,2.07-4.08,4.05-5.83,5.92s-2.56,3.28-2.43,4.18a10.24,10.24,0,0,0,1.55,3.79q1.36,2.24,3.21,4.76a46.47,46.47,0,0,0,4.08,4.86c1.49,1.56,2.82,2.85,4,3.89a3.9,3.9,0,0,1,.87,2,4.41,4.41,0,0,1-.29,2,3.31,3.31,0,0,1-1.27,1.55,2,2,0,0,1-1.65.39,16.36,16.36,0,0,1-6.7-2.62,37.09,37.09,0,0,1-5.54-4.57,46.61,46.61,0,0,1-4.47-5.15C598,283.26,596.85,281.68,595.81,280.25Zm-.19-77.15a10.39,10.39,0,0,0-2.62,3.31q-1.66,2.72-3.31,6.12t-2.91,6.8a22.4,22.4,0,0,0-1.46,5.54q4.27,0,8.36-4.57a18.75,18.75,0,0,0,4.66-11.17,8.17,8.17,0,0,0-.49-3.6A3.29,3.29,0,0,0,595.62,203.1Zm54.8,75.21a31.29,31.29,0,0,0-3.21,2.81l-3,3a57.84,57.84,0,0,0-3.79,4.47q-1.45,1.93-5.15,2.33a4,4,0,0,1-3.79-1.94,4.85,4.85,0,0,1-.09-5.06,10.29,10.29,0,0,1,1.26-1.84c.58-.71,1-1.27,1.26-1.65q8-8.18,15.55-15.75t15.93-14.76a4.26,4.26,0,0,1,2.82-1,6.49,6.49,0,0,1,3.11.78,6.16,6.16,0,0,1,2.33,2.14,3.44,3.44,0,0,1,.29,3.11,11.6,11.6,0,0,1-2.52,3.88,51.51,51.51,0,0,1-4.28,4.18q-2.32,2-4.47,4a9.93,9.93,0,0,0-2.72,3.49,26.77,26.77,0,0,0,1.56,7.87,57.68,57.68,0,0,0,3.11,7.19,53.75,53.75,0,0,0,3.69,6.22q1.94,2.82,3.3,5.15a16.79,16.79,0,0,1,1.65,4.18c.32,1.36,0,2.17-1.07,2.43a7.17,7.17,0,0,1-6.8-1.55,32.89,32.89,0,0,1-3.69-4,51,51,0,0,1-3.3-4.56,35.39,35.39,0,0,1-2.24-3.7c-.84-1.55-1.65-3.11-2.43-4.66s-1.49-2.95-2.13-4.18A14.1,14.1,0,0,1,650.42,278.31Zm-4.66-51.11c.12-2.72.29-5.47.48-8.26s.49-5.6.88-8.45q1-7.59,2-14.48a100.72,100.72,0,0,1,3.59-14.87q1.17-3.3,2-6a22.88,22.88,0,0,1,2-4.67q1-1.55,3.69-1.65a7.54,7.54,0,0,1,4.28.88,8,8,0,0,1,1.46,1.45,2.8,2.8,0,0,1,.68,1.66,8.67,8.67,0,0,1-1,4.85,27.74,27.74,0,0,0-2,4.47q-2.52,8.94-4.17,18.08t-3.41,19.24q-.39,3.1-1,6.21t-1,5.83a10.73,10.73,0,0,1-1.36,4.08c-.78,1.43-1.69,2-2.72,1.75a4.68,4.68,0,0,1-2.72-1.55,7.75,7.75,0,0,1-1.46-2.72,10.5,10.5,0,0,1-.48-3.11Z" transform="translate(-79.71 -145.39)"/><path d="M692,250.91a57.78,57.78,0,0,1-.3-8.46q.1-5.73.59-12.53t1.45-13.8q1-7,2.14-12.43c.13-.65.29-1.4.49-2.24a8.9,8.9,0,0,1,.87-2.33,5.29,5.29,0,0,1,1.75-1.85,6,6,0,0,1,3.31-.77,4.86,4.86,0,0,1,3.4,1.65,4.35,4.35,0,0,1,1.26,4c-.26,1.3-.52,2.85-.78,4.66s-.52,3.67-.78,5.54-.51,3.73-.77,5.54-.52,3.3-.78,4.47a42.07,42.07,0,0,0-.68,4.18c-.2,1.62-.39,3.37-.58,5.25s-.36,3.75-.49,5.63-.19,3.6-.19,5.15c-.13,1.82.25,3,1.16,3.69a3,3,0,0,0,2.92.39q4.08-1.35,9.13-3.4t10-4.18l9.23-4a39.6,39.6,0,0,1,7-2.43,2.93,2.93,0,0,1,3.3,1.75,5.16,5.16,0,0,1,0,2.82,5.82,5.82,0,0,1-1.94,3,19.77,19.77,0,0,1-3.41,2.72c-1.23.78-2.49,1.55-3.78,2.33q-1.56,1-5.54,3t-8.75,4.28q-4.75,2.24-9.52,4.08a44.91,44.91,0,0,1-8.06,2.43,9.64,9.64,0,0,1-7.29-1.46A9.34,9.34,0,0,1,692,250.91Zm67.23,25.65a30.22,30.22,0,0,1-.29-4.28c-.06-2.33-.13-4.79-.19-7.38s-.13-5-.2-7.29-.09-3.59-.09-4a10.29,10.29,0,0,0-.59-2.14,4.5,4.5,0,0,1-.19-2.33q.78-7.57,1.85-16.33t2.33-17.78q1.26-9,2.62-17.78t3.11-16.52a18.36,18.36,0,0,1,1.17-3.49c.51-1.17,1.61-1.75,3.3-1.75q6,0,6,6a17.49,17.49,0,0,1-1.16,6.32,38,38,0,0,0-1.75,5.73q-1,4.47-1.94,10.4t-1.66,12.14q-.68,6.23-1.26,12.24t-.78,10.89a31.64,31.64,0,0,1,6.12-2.14c2.53-.65,5.18-1.26,8-1.85s5.51-1.07,8.16-1.45a48.59,48.59,0,0,1,6.9-.59h3.5a2.7,2.7,0,0,1,1.17.2,2.88,2.88,0,0,1,1.36,1,3.89,3.89,0,0,1,0,2.52q-.39,1.56-3.89,2.82c-2.33.85-5.05,1.72-8.16,2.63s-6.29,1.81-9.52,2.72a35.9,35.9,0,0,0-8,3.11A11.46,11.46,0,0,0,769,258.87q0,2.14.29,5.93c.2,2.53.39,5.18.59,8s.38,5.44.58,8,.29,4.44.29,5.73a2.49,2.49,0,0,1-1.46,2.33,5.44,5.44,0,0,1-2.43.78,4.5,4.5,0,0,1-3.59-1.46,11.05,11.05,0,0,1-2-3.59,26.21,26.21,0,0,1-1.17-4.28Q759.63,278.12,759.24,276.56Z" transform="translate(-79.71 -145.39)"/><path d="M823.76,242.16a40.34,40.34,0,0,1,1.75-8.94,50,50,0,0,1,3.59-8.45q2.24-4.17,5-8.45t6-9.33c1.3-2.07,2.63-4.15,4-6.22a52.56,52.56,0,0,0,3.59-6.41,44.07,44.07,0,0,0,2.53-6.71,20.91,20.91,0,0,0,.78-6.9,7.68,7.68,0,0,0-3.6-6.21q-3.4-2.34-9.81-2.53a40.34,40.34,0,0,0-5.54.39,15,15,0,0,0-5.15,1.65,8.2,8.2,0,0,0-3.5,3.59,10,10,0,0,0-.58,6,25.25,25.25,0,0,0,1.26,4.18c.58,1.49,1,2.56,1.27,3.2a2.13,2.13,0,0,1-.1,2.53,3.89,3.89,0,0,1-2.53,1.17A6.77,6.77,0,0,1,819,194a9.17,9.17,0,0,1-3.6-3.3q-4.47-6.61-4.08-12a13.62,13.62,0,0,1,2.63-7.87,20.45,20.45,0,0,1,6.12-5.35,28.26,28.26,0,0,1,8.16-3.11,42.48,42.48,0,0,1,8.94-1q11.46,0,18.46,4.47A15.26,15.26,0,0,1,863,178.62a36.93,36.93,0,0,1-.67,9,39.26,39.26,0,0,1-2.63,8.07,70.92,70.92,0,0,1-4.18,7.87q-2.43,4-4.95,8.26-1.76,2.91-4.08,6.51c-1.56,2.4-3,4.69-4.28,6.89q-2.52,4.49-4,7.78a40.28,40.28,0,0,0-2.24,6.41,34.66,34.66,0,0,0-1,6.41c-.13,2.21-.19,4.73-.19,7.58q0,3.12-1.65,4.08a6.09,6.09,0,0,1-3,1,4.75,4.75,0,0,1-4.17-2.14,12,12,0,0,1-1.85-5.44c-.26-2.2-.42-3.95-.49-5.25A20.72,20.72,0,0,1,823.76,242.16Zm-2.14,47.42a7.4,7.4,0,0,1,.59-5.44,5.79,5.79,0,0,1,4.27-3.5,9.7,9.7,0,0,1,8.16,1.55,11.54,11.54,0,0,1,4.28,6.81,8.46,8.46,0,0,1-.29,6.12,6,6,0,0,1-4.57,3q-5.25,1.17-8.16-1.46A15.32,15.32,0,0,1,821.62,289.58Z" transform="translate(-79.71 -145.39)"/></g><g id="레이어_2" data-name="레이어 2"><path class="cls-3" d="M103.7,742.27c0-65.09,38.47-136.84,137.6-154.59s133.89-10.34,133.89-10.34S410.7,510,433.63,496s193.82-35.49,286.28,0S915.69,659.2,932.19,714.23c4.44,14.8,0,39.21,0,39.21l-218.22,0-.74,12-419.43,0-2.12-23.64Z" transform="translate(-79.71 -145.39)"/><path class="cls-4" d="M106.2,742.27c.13-50.37,24-98.27,66.57-125.95,28.43-18.47,60.72-25.23,93.74-30.33,26.75-4.13,53.84-7.36,80.94-7.66a210,210,0,0,1,21,.65,41.89,41.89,0,0,1,6.08.77,2.58,2.58,0,0,0,2.83-1.15c7.58-14.35,15.91-28.36,24.81-41.92,6.54-10,13.42-19.86,21.51-28.65,4.71-5.11,9.73-9.81,16.32-12.25,15.54-5.75,32.64-8.06,49-10.33a694.23,694.23,0,0,1,78.23-6.14c28.89-.71,57.91.19,86.59,3.8,26,3.28,52.17,8.82,76.09,19.77,26.33,12.06,50.29,29.11,72.34,47.74a554.41,554.41,0,0,1,64.43,64.69c17.17,20.21,33.24,41.58,46.68,64.47a198.19,198.19,0,0,1,13.58,26.9c4.57,11.5,5.34,23,4.26,35.28-.32,3.62-.73,7.24-1.37,10.81l2.41-1.83H714a2.55,2.55,0,0,0-2.5,2.5l-.74,12,2.5-2.5H300.08c-1.68,0-3.94-.4-5.58,0a3.28,3.28,0,0,1-.7,0l2.5,2.5-2.12-23.64a2.56,2.56,0,0,0-2.5-2.5l-63.48.18L127,739.71l-23.28.06c-3.22,0-3.23,5,0,5l63.48-.18,101.22-.28,23.28-.07-2.5-2.5,2.12,23.64a2.57,2.57,0,0,0,2.5,2.5H696.1c5.44,0,11,.36,16.43,0h.7a2.55,2.55,0,0,0,2.5-2.5l.74-12-2.5,2.5H932.19a2.53,2.53,0,0,0,2.41-1.84c2-10.92,2.88-22.5,1.43-33.52-1.25-9.44-5.38-18.47-9.54-27-11-22.36-25.46-43-40.7-62.64a575.91,575.91,0,0,0-62.2-68c-22-20.46-45.79-39.45-71.91-54.41-49-28.07-106.5-34-162-34.41a719.61,719.61,0,0,0-84.06,4.28c-19.87,2.18-40,4.8-59.36,10.17-5.07,1.41-10.43,2.95-14.86,5.89-8.77,5.82-15.58,14.65-21.84,23-13,17.27-24.16,36-34.51,55-.67,1.23-1.34,2.46-2,3.7l2.82-1.15c-7.47-1.58-15.48-1.56-23.07-1.62-25.55-.18-51.13,2.63-76.4,6.2-34.37,4.87-68.74,10.59-99.19,28.23a150.53,150.53,0,0,0-55.9,56.09c-13.43,23.85-20,51.14-20.09,78.44C101.19,745.49,106.19,745.5,106.2,742.27Z" transform="translate(-79.71 -145.39)"/><path class="cls-5" d="M124.23,682.22c-6.88-4.92-4.08-15.6,5.21-26.41s23.63-13.27,28.2-7.15" transform="translate(-79.71 -145.39)"/><rect class="cls-6" x="1.5" y="544.56" width="44.88" height="15.78" rx="6.18"/><rect class="cls-6" x="815.7" y="545.09" width="55.97" height="19.67" rx="7.71"/><path d="M103.7,745.23c-2-50.79,50.31-114.4,116.39-114.4s144,32.07,143.49,136.62l-142,0V745.74Z" transform="translate(-79.71 -145.39)"/><path class="cls-7" d="M363.58,767.45c.51-104.55-77.41-136.61-143.49-136.62S101.73,694.44,103.7,745.23c0,0,26.09,3.94,32.55-22.68,7.89-32.55,49.32-59.19,86.8-59.18s63.12,22.21,75.44,41,11.34,48.82,11.34,48.82,1,16.27,15.29,16.28S363.58,767.45,363.58,767.45Z" transform="translate(-79.71 -145.39)"/><path d="M673.28,769c0-60.16,17.76-98.63,60.67-124.27S844.42,625,873.51,658.5s42.9,65.1,48.32,73.49,12.33,25.42,12.33,25.42H786.22V769Z" transform="translate(-79.71 -145.39)"/><path class="cls-7" d="M673.28,769c0-60.16,17.76-98.63,60.67-124.27S844.42,625,873.51,658.5s42.9,65.1,48.32,73.49c0,0,16.77,22.24,25.15,25.42-12.82,3.67-29.52,7.94-50.79-6.69-23.67-16.27-45.86-57.7-68.76-70.19C802,666.67,752.69,668.85,726.06,695s-24.17,74-24.17,74Z" transform="translate(-79.71 -145.39)"/><circle class="cls-8" cx="141.66" cy="614.97" r="77.3"/><path class="cls-9" d="M296.17,760.36A74.8,74.8,0,0,1,163.52,807.8a74.52,74.52,0,0,1-16.73-41.51,74.82,74.82,0,1,1,149.38-5.93c0,3.22,5,3.22,5,0a79.93,79.93,0,1,0-1,12.42,83.3,83.3,0,0,0,1-12.42C301.17,757.14,296.17,757.14,296.17,760.36Z" transform="translate(-79.71 -145.39)"/><circle class="cls-8" cx="141.66" cy="616.97" r="51.75"/><path class="cls-9" d="M270.62,762.36a49.78,49.78,0,0,1-9.23,28.71,49.12,49.12,0,0,1-22.95,17.5,49.47,49.47,0,1,1,32.18-46.21c0,3.21,5,3.22,5,0a54.33,54.33,0,0,0-10.1-31.51,54.25,54.25,0,0,0-98.24,27.31A54.18,54.18,0,0,0,199,811.76a54.94,54.94,0,0,0,33.36,3.73c21.72-4.39,39.21-22.6,42.59-44.51a57.92,57.92,0,0,0,.7-8.62C275.63,759.14,270.63,759.13,270.62,762.36Z" transform="translate(-79.71 -145.39)"/><circle class="cls-8" cx="710.9" cy="615.01" r="77.3"/><path class="cls-9" d="M865.41,760.41a74.8,74.8,0,0,1-132.65,47.43A74.46,74.46,0,0,1,716,766.33a74.82,74.82,0,1,1,149.38-5.92c0,3.21,5,3.22,5,0a79.81,79.81,0,1,0-112.76,72.68,80.79,80.79,0,0,0,49.07,5.48,79.81,79.81,0,0,0,62.71-65.74,83.3,83.3,0,0,0,1-12.42C870.42,757.19,865.42,757.18,865.41,760.41Z" transform="translate(-79.71 -145.39)"/><circle class="cls-8" cx="710.9" cy="617.01" r="51.75"/><path class="cls-9" d="M839.86,762.4a49.79,49.79,0,0,1-9.23,28.72,49.18,49.18,0,0,1-23,17.5,49.3,49.3,0,0,1-55.1-14.9c-13.2-15.86-14.79-39.13-4.16-56.75a49.21,49.21,0,0,1,91.44,25.43c0,3.22,5,3.23,5,0a54.36,54.36,0,0,0-10.09-31.5,54.25,54.25,0,0,0-98.25,27.3,54.21,54.21,0,0,0,31.69,53.61,55.09,55.09,0,0,0,33.36,3.73c21.72-4.39,39.21-22.6,42.59-44.52a57.82,57.82,0,0,0,.7-8.62C844.87,759.19,839.87,759.18,839.86,762.4Z" transform="translate(-79.71 -145.39)"/><path class="cls-2" d="M499.54,598.14h71s12.49-1.32,12.49-10.85V521.88c0-4.94-2.3-10.85-12.82-10.86s-57.09-2.37-70.69,0c-25.48,4.44-46.28,17.42-59.18,27-14.21,10.51-27.29,36.17-27,47.34s5.59,12.83,14.13,12.83Z" transform="translate(-79.71 -145.39)"/><path class="cls-2" d="M499.54,600.64h70.1a18.78,18.78,0,0,0,12.23-4.79c2.89-2.7,3.68-6.18,3.68-10V529.72c0-4.85.78-10.69-1.8-15-4.31-7.2-13.65-6.12-20.89-6.32-8.62-.25-17.25-.54-25.88-.73-9-.19-18.1-.34-27.14,0a93.48,93.48,0,0,0-10,.81,103.94,103.94,0,0,0-18.3,4.62,148.43,148.43,0,0,0-32.16,15.67,137.94,137.94,0,0,0-12,8.39,63.45,63.45,0,0,0-10.84,11.66c-6.22,8.31-11.52,17.93-14.33,28-2.15,7.65-2.46,19,6.29,22.58,3.17,1.29,6.72,1.3,10.1,1.3h70.93c3.22,0,3.23-5,0-5H429.33a30.8,30.8,0,0,1-8-.6c-.36-.1-.72-.22-1.08-.35-.68-.26.42.22-.22-.1l-.57-.3c-.16-.1-.95-.65-.55-.34a9.89,9.89,0,0,1-.94-.89c-.47-.53.26.39-.16-.2-.13-.19-.25-.38-.37-.58a9.35,9.35,0,0,1-.56-1.09c.18.42-.13-.4-.12-.39-.09-.26-.17-.53-.24-.8a15.83,15.83,0,0,1-.38-1.79c-.64-4.11,0-7,1.14-10.93a73,73,0,0,1,5.48-13.07c4.63-8.81,10.69-17.87,18.63-23.9a158.9,158.9,0,0,1,26.17-16.09,129.56,129.56,0,0,1,16.89-6.86q4.77-1.54,9.64-2.68c1.52-.36,3-.68,4.58-1l1.84-.33c.18,0,1.24-.18.45-.07,7.37-.95,14.91-.86,22.33-.84,15.64,0,31.26.93,46.89,1a14.86,14.86,0,0,1,6.72,1.34,8.32,8.32,0,0,1,1.09.69c-.36-.27.24.22.25.23l.51.5s.51.62.19.2c.09.12.18.24.26.37a9.82,9.82,0,0,1,.74,1.35c-.21-.49.15.47.2.62.1.34.18.68.25,1s.08.42.11.63c-.09-.63,0,.06,0,.16,0,.41,0,.82,0,1.24v64a11.59,11.59,0,0,1-.3,3.51,5.84,5.84,0,0,1-1.06,2c.29-.4-.18.2-.2.22-.16.18-.32.35-.49.51s-.22.22-.34.32-.79.62-.39.33a14,14,0,0,1-2.13,1.28c-.15.08-1.1.49-.58.28-.41.17-.82.32-1.24.46a24.34,24.34,0,0,1-3.29.82c-.85.15.38,0,0,0h-.18c-.51,0-1,0-1.52,0H499.54C496.33,595.64,496.32,600.64,499.54,600.64Z" transform="translate(-79.71 -145.39)"/><path class="cls-8" d="M492.2,598.14h65s11.43-1,11.43-8.68V537.13c0-4-2.1-8.68-11.73-8.68H492.2c-12.63,0-43,11.31-54.13,21.57s-25,28.93-24.66,37.87,5.11,10.26,12.93,10.26Z" transform="translate(-79.71 -145.39)"/><path class="cls-2" d="M492.2,600.64h63.71a19.06,19.06,0,0,0,10.73-3.2,10.48,10.48,0,0,0,3.81-4.62,11.37,11.37,0,0,0,.64-4.33V539.82a23.48,23.48,0,0,0-.36-5.68,10.61,10.61,0,0,0-7.68-7.41c-3.26-1-6.72-.78-10.09-.78H495.9a62.1,62.1,0,0,0-8.52.4A83,83,0,0,0,475.61,529a141,141,0,0,0-26.49,10.68,70.94,70.94,0,0,0-10.76,6.84,74.72,74.72,0,0,0-9.42,9.32c-6.51,7.38-12.9,15.65-16.51,24.88a18.7,18.7,0,0,0-1,11.44,10.41,10.41,0,0,0,7.71,7.81c4.71,1.22,10.09.7,14.94.7H492.2c3.22,0,3.22-5,0-5H428.75a49.49,49.49,0,0,1-6.89-.23c.44.06-.4-.08-.39-.08l-.5-.1a12.29,12.29,0,0,1-1.19-.32l-.45-.15c-.69-.27.4.22-.24-.12a8.58,8.58,0,0,1-1-.63c-.33-.24.39.39-.09-.09l-.31-.3c-.05,0-.51-.6-.19-.18a4.28,4.28,0,0,1-.26-.38,9.24,9.24,0,0,1-.58-1.07c.15.36-.05-.17-.07-.25-.1-.31-.2-.62-.27-.94a12.94,12.94,0,0,1-.35-2.55,11.22,11.22,0,0,1,0-1.16c0-.21,0-.42.05-.62-.05.46,0,0,0-.21a23.29,23.29,0,0,1,1.52-4.89,67.36,67.36,0,0,1,6.61-11.43,116.8,116.8,0,0,1,9.34-11.7c1.58-1.75,3.22-3.46,4.92-5.1.71-.68,1.42-1.36,2.16-2s1.21-1,1.68-1.36c6.87-5.12,14.9-8.83,22.85-11.93,4.29-1.67,8.65-3.17,13.09-4.41,1.93-.54,3.88-1,5.85-1.45.89-.19,1.78-.36,2.68-.52l1.14-.18.62-.09.3,0a73.43,73.43,0,0,1,7.85-.22h56c2.81,0,5.78-.24,8.52.43a7,7,0,0,1,3.84,2.09c.46.51-.25-.4.12.16.08.11.16.23.23.35s.51,1,.28.47a7.21,7.21,0,0,1,.3.93c.06.22.22,1.32.15.64.15,1.55.06,3.14.06,4.69V588.5c0,.41,0,.83,0,1.24a3.86,3.86,0,0,1-.46,1.69,4.63,4.63,0,0,1-1.12,1.37c-.45.43,0,.11-.58.46a10.85,10.85,0,0,1-1.18.71c-.3.16-.61.31-.92.45s.54-.2-.13.05l-.41.15c-.7.25-1.41.46-2.13.64-.49.12-1,.22-1.48.31l-.58.09c-.48.09.71,0,.19,0-3-.15-6,0-9,0H492.2C489,595.64,489,600.64,492.2,600.64Z" transform="translate(-79.71 -145.39)"/><path class="cls-2" d="M697.8,527.14c21.37,9.21,57.53,32.89,58.84,47.35s-7.27,22-17.77,22H623.16c-6.57,0-21-1-21-14.14V524.84c0-3.62,0-13.81,13.15-13.81S673.3,516,697.8,527.14Z" transform="translate(-79.71 -145.39)"/><path class="cls-2" d="M696.53,529.3a178.38,178.38,0,0,1,23.08,12.29,158,158,0,0,1,22.29,16.28,67.61,67.61,0,0,1,8.09,8.4c.31.39.14.17.07.09.15.19.3.39.44.59s.47.65.7,1c.42.62.83,1.26,1.2,1.92s.66,1.23,1,1.87-.18-.49,0,.13c.05.12.1.24.14.36.13.35.24.7.34,1.06s.15.58.21.87c0,.11,0,.23.06.34.12.59,0-.58,0,0a37.89,37.89,0,0,1,.12,3.84,20.73,20.73,0,0,1-1.26,6.52,13.9,13.9,0,0,1-6.77,7.54,17.53,17.53,0,0,1-8,1.63H623.5c-.86,0-1.71,0-2.57,0-.71,0-1.42-.08-2.13-.14-1-.08-1.43-.14-2-.23a27.7,27.7,0,0,1-4.85-1.19c-.17-.07-1.09-.44-.77-.3-.37-.16-.74-.34-1.1-.53s-.71-.39-1.05-.61c-.17-.1-1-.66-.68-.44-2.79-2.15-3.75-4.9-3.76-8.49q0-10.15,0-20.33c0-12.4,0-24.81,0-37.22a27.23,27.23,0,0,1,.16-3c-.09.76,0-.21.07-.4s.12-.61.19-.91.17-.62.27-.93l.16-.46c.19-.61-.13.22.08-.24a13.44,13.44,0,0,1,1-1.69c.08-.11.38-.46.06-.09l.36-.41a9,9,0,0,1,.9-.85c-.31.26.5-.34.65-.43a8.76,8.76,0,0,1,1.13-.6c-.32.14.21-.08.28-.11l.68-.23a13.31,13.31,0,0,1,1.79-.42,38.82,38.82,0,0,1,8.62,0c3.38.19,6.75.49,10.12.83,18.15,1.85,36.55,4.89,54,10.45a105.15,105.15,0,0,1,11.4,4.29,2.58,2.58,0,0,0,3.43-.89,2.53,2.53,0,0,0-.9-3.42,145.28,145.28,0,0,0-26.77-8.68c-9.59-2.25-19.31-4-29.06-5.29-7.72-1.06-15.49-1.95-23.27-2.35-3.37-.17-6.84-.36-10.13.5a12.86,12.86,0,0,0-8.5,6.69c-1.9,4-1.7,8.32-1.7,12.61v45.28c0,3-.06,6,0,9a14.73,14.73,0,0,0,4.85,11c7.32,6.27,17.94,5.26,27,5.26h81.3c8.71,0,17.42.05,26.12,0a20.93,20.93,0,0,0,11.85-3.5,19.62,19.62,0,0,0,7.45-10.37,24.45,24.45,0,0,0,.48-13.38,26.25,26.25,0,0,0-4.81-8.64c-5.32-6.84-12.27-12.38-19.22-17.46a202.7,202.7,0,0,0-24.54-15.34c-3.61-1.92-7.27-3.72-11-5.34a2.58,2.58,0,0,0-3.42.89A2.52,2.52,0,0,0,696.53,529.3Z" transform="translate(-79.71 -145.39)"/><path class="cls-8" d="M681.85,543.42c-20.41-8.56-57.81-12.34-68.77-12.34s-11,7.8-11,10.57v44c0,10.06,12,10.82,17.53,10.82H738.87s6.59-6.25-6.56-19.4S702.07,552.46,681.85,543.42Z" transform="translate(-79.71 -145.39)"/><path class="cls-2" d="M682.51,541a132.59,132.59,0,0,0-24.81-7.07c-8.8-1.78-17.69-3.09-26.61-4.08a143.43,143.43,0,0,0-18.41-1.27c-4.13.07-8.29,1.28-10.84,4.73a13,13,0,0,0-2.21,7.38c-.13,4.38,0,8.79,0,13.17V576.6c0,2.92,0,5.84,0,8.76a11.89,11.89,0,0,0,4.82,10c4.29,3.18,10.17,3.68,15.34,3.69H734.64c1.4,0,2.82.08,4.22,0,1.56-.09,2.51-1.38,3.12-2.69a11.52,11.52,0,0,0,.74-7.32c-.82-4.13-3.43-7.82-6.11-10.94a98,98,0,0,0-11.34-10.79,170.42,170.42,0,0,0-26.92-18.42q-7.46-4.12-15.24-7.6a2.57,2.57,0,0,0-3.42.9,2.52,2.52,0,0,0,.9,3.42A180.49,180.49,0,0,1,717.05,567a128.91,128.91,0,0,1,14.18,12.55,30.75,30.75,0,0,1,5.5,7.37,10.71,10.71,0,0,1,.91,2.3c.12.43.21.85.3,1.28,0,.12.09.79,0,.12,0,.25,0,.49.06.74s0,.78,0,1.17.15-.56,0-.07c0,.18-.07.37-.12.55s-.14.49-.21.73c-.21.74.27-.4-.09.21-.19.32-1,1.29-.22.47-.09.09-.16.2-.26.29l1.77-.73h-119c-.9,0-1.81,0-2.71-.06-.57,0-1.13-.07-1.7-.12l-1-.1c-.07,0-.49-.07-.06,0l-.61-.1a22.23,22.23,0,0,1-3.78-.94,7.93,7.93,0,0,1-1.47-.63c-.29-.16-.58-.32-.85-.49-.11-.07-.8-.55-.49-.31a5.78,5.78,0,0,1-2.17-2.72c.14.33-.18-.55-.2-.63a7.51,7.51,0,0,1-.21-.94,16.23,16.23,0,0,1-.08-1.77V542.42c0-.45,0-.89,0-1.34s0-.68,0-1c0-.18,0-.36.05-.54,0-.71-.11.4,0-.32.09-.4.17-.81.29-1.2s.15-.47.24-.71c.15-.42,0,0,0,.08.07-.15.13-.3.21-.44s.27-.45.41-.68c.27-.47-.12.08.16-.23a5.84,5.84,0,0,1,1.08-1c2.08-1.28,4.67-1.49,7.37-1.43,5.14.12,10.28.59,15.39,1.13,14.22,1.51,28.57,3.77,42.28,7.91a92.07,92.07,0,0,1,9,3.19,2.52,2.52,0,0,0,3.08-1.75A2.55,2.55,0,0,0,682.51,541Z" transform="translate(-79.71 -145.39)"/><line class="cls-10" x1="295.48" y1="492.55" x2="667.72" y2="492.58"/><rect class="cls-6" x="456.49" y="505.16" width="44.88" height="9.7" rx="4.85"/><line class="cls-10" x1="514.35" y1="331.23" x2="514.33" y2="622.24"/><line class="cls-10" x1="295.48" y1="431.95" x2="295.47" y2="620"/><path class="cls-10" d="M375.19,603.23c-38.47,0-131.89-3-186.33,32.41" transform="translate(-79.71 -145.39)"/></g></svg>