<svg id="레이어_1" data-name="레이어 1" xmlns="http://www.w3.org/2000/svg" viewBox="0 0 918.74 918.74"><defs><style>.cls-1{fill:#f8b62d;}.cls-2{fill:#fff;}</style></defs><path class="cls-1" d="M38.41,591V795.53c0,90.11,73.73,163.84,163.84,163.84H360c-.12-95.41-.3-234.68-.46-368.4Z" transform="translate(-38.41 -40.63)"/><path class="cls-1" d="M555.58,523.48s175.72-.6,172.52-148.29C725.86,272.07,671.5,242,635.58,232.44A198.29,198.29,0,0,0,603.79,227l-171.69.16-.32,299.47C579.38,524.8,555.58,523.48,555.58,523.48Z" transform="translate(-38.41 -40.63)"/><path class="cls-1" d="M793.32,40.63H202.25c-90.11,0-163.84,73.73-163.84,163.84V527.05c85.49.21,231,.48,321.08.17-.22-171.81-.39-320.29-.39-333,0-31.35,20.31-33.74,20.31-33.74s137.59-4.44,233.75,0,192.33,56.22,192.33,212.23c0,89-51.78,157.64-110.83,189C638.06,591.79,568.29,591,568.29,591H431.71l-.39,368.4h362c90.1,0,163.83-73.73,163.83-163.84V204.47C957.15,114.36,883.42,40.63,793.32,40.63Z" transform="translate(-38.41 -40.63)"/><path class="cls-2" d="M359.57,591c.16,133.72.34,273,.46,368.4h71.29l.39-368.4Z" transform="translate(-38.41 -40.63)"/><path class="cls-2" d="M359.49,527.22c-90.05.31-235.59,0-321.08-.17V591H359.57C359.54,569.51,359.51,548.19,359.49,527.22Z" transform="translate(-38.41 -40.63)"/><path class="cls-2" d="M431.71,591l.07-64.31-16.37.2c-13.81.17-33.08.28-55.92.36,0,21,.05,42.29.08,63.75Z" transform="translate(-38.41 -40.63)"/><path class="cls-2" d="M431.78,526.66l.32-299.47L603.79,227a198.29,198.29,0,0,1,31.79,5.41c35.92,9.53,90.28,39.63,92.52,142.75,3.2,147.69-172.52,148.29-172.52,148.29s23.8,1.32-123.8,3.18L431.71,591H568.29s69.77.82,126.37-29.27c59.05-31.38,110.83-100,110.83-189,0-156-96.16-207.79-192.33-212.23s-233.75,0-233.75,0-20.31,2.39-20.31,33.74c0,12.74.17,161.22.39,333,22.84-.08,42.11-.19,55.92-.36Z" transform="translate(-38.41 -40.63)"/></svg>