<svg id="레이어_1" data-name="레이어 1" xmlns="http://www.w3.org/2000/svg" viewBox="0 0 816.66 816.66"><defs><style>.cls-1{fill:#2a66a9;}.cls-2{fill:#fff;}</style></defs><path class="cls-1" d="M659.8,452.51c0-119.1-182.11-105.1-182.11-105.1l1,211.75S659.8,577.52,659.8,452.51Z" transform="translate(-98.22 -102.62)"/><path class="cls-1" d="M506.55,102.62C281,102.62,98.22,285.43,98.22,511c0,181.66,118.63,335.61,282.66,388.62V259.91S742,195.82,742,447.33c0,227.83-260.77,192.8-260.77,192.8V918.49q12.58.78,25.37.78c225.51,0,408.33-182.81,408.33-408.32S732.06,102.62,506.55,102.62Z" transform="translate(-98.22 -102.62)"/><path class="cls-2" d="M742,447.33c0-251.51-361.07-187.42-361.07-187.42V899.57a407,407,0,0,0,100.3,18.92V640.13S742,675.16,742,447.33ZM477.69,347.41s182.11-14,182.11,105.1c0,125-181.11,106.65-181.11,106.65Z" transform="translate(-98.22 -102.62)"/></svg>